<?xml version="1.0" encoding="UTF-8"?>
<svg width="70px" height="72px" viewBox="0 0 70 72" version="1.1" xmlns="http://www.w3.org/2000/svg" xmlns:xlink="http://www.w3.org/1999/xlink">
    <!-- Generator: Sketch 63.1 (92452) - https://sketch.com -->
    <title>ic_wheelchair</title>
    <desc>Created with Sketch.</desc>
    <g id="Page-1" stroke="none" stroke-width="1" fill="none" fill-rule="evenodd">
        <g id="Mai---Home_Multi" transform="translate(-794.000000, -1198.000000)" fill-rule="nonzero">
            <g id="Group-9" transform="translate(0.000000, 918.000000)">
                <g id="Group-7" transform="translate(157.000000, 247.000000)">
                    <g id="ic_wheelchair" transform="translate(637.000000, 33.000000)">
                        <polygon id="Path" fill="#D8E2F1" points="50.7470625 51.8167969 52.8877969 51.8167969 52.8877969 60.7407187 50.7470625 60.7407187"></polygon>
                        <circle id="Oval" fill="#3086CD" cx="51.8173594" cy="65.1685781" r="5.76660937"></circle>
                        <circle id="Oval" fill="#034EA2" cx="51.8173594" cy="65.1685781" r="1.80210938"></circle>
                        <path d="M68.1990469,61.9969219 L61.1267344,61.9969219 C60.5754844,61.9969219 60.0735937,61.6795312 59.8373437,61.1814375 L57.7622812,56.8070156 L68.1991875,56.8070156 C68.9873906,56.8070156 69.6263906,57.4460156 69.6263906,58.2342187 L69.6263906,60.5698594 C69.62625,61.3579219 68.98725,61.9969219 68.1990469,61.9969219 L68.1990469,61.9969219 Z" id="Path" fill="#3086CD"></path>
                        <path d="M60.1315313,56.806875 L57.0417188,50.293125 C56.8645313,49.919625 56.4879375,49.6815469 56.0746406,49.6815469 L50.7470625,49.6815469 L50.7470625,51.8222812 L55.3978125,51.8222812 L57.7622813,56.806875 L60.1315313,56.806875 Z" id="Path" fill="#D8E2F1"></path>
                        <path d="M12.3565781,4.08782813 L10.2158437,4.08782813 L10.2158437,3.95325 C10.2158437,2.95382813 9.40275,2.14073438 8.40332813,2.14073438 L3.31059375,2.14073438 L3.31059375,-2.49800181e-16 L8.40332813,-2.49800181e-16 C10.5831563,-2.49800181e-16 12.3565781,1.77342187 12.3565781,3.95325 L12.3565781,4.08782813 Z" id="Path" fill="#D8E2F1"></path>
                        <path d="M4.73709375,0.856265625 L4.73709375,8.082 C4.73709375,8.55492187 4.35375,8.93826562 3.88082812,8.93826562 L0.980015625,8.93826562 C0.50709375,8.93826562 0.12375,8.55492187 0.12375,8.082 L0.12375,0.856265625 C0.12375,0.38334375 0.50709375,-4.99600361e-16 0.980015625,-4.99600361e-16 L3.8806875,-4.99600361e-16 C4.35375,-4.99600361e-16 4.73709375,0.38334375 4.73709375,0.856265625 L4.73709375,0.856265625 Z" id="Path" fill="#3086CD"></path>
                        <path d="M51.4605937,51.8167969 L10.2147187,51.8167969 L10.2147187,31.6335937 L47.1211875,31.6335937 C50.3060625,31.6335937 52.8877969,34.2154687 52.8877969,37.4002031 L52.8877969,50.3895937 C52.8877969,51.1777969 52.2487969,51.8167969 51.4605938,51.8167969 L51.4605937,51.8167969 Z" id="Path" fill="#FFDD00"></path>
                        <path d="M32.0460469,31.6335937 L10.2147187,31.6335937 L10.2147187,44.1389531 C12.5344687,41.0970937 16.1950781,39.1301719 20.3070937,39.1301719 C27.3024844,39.1301719 32.9937188,44.8214062 32.9937188,51.8167969 L43.6619531,51.8167969 C43.6619531,43.2154687 38.9874375,35.6864062 32.0460469,31.6335937 Z" id="Path" fill="#D6BA00"></path>
                        <path d="M18.8645625,31.6335937 L10.2147187,31.6335937 L10.2147187,3.95367187 L11.8335937,3.95367187 C14.8903594,3.95367187 17.4159844,6.3388125 17.5907812,9.39065625 L18.8645625,31.6335937 Z" id="Path" fill="#D8E2F1"></path>
                        <path d="M17.5909219,9.39065625 C17.4192187,6.39239062 14.9778281,4.03917187 11.9934844,3.95760937 C13.5361406,4.91751562 14.5972969,6.58645312 14.70825,8.52567187 L15.9820312,31.6335937 L18.8647031,31.6335937 L17.5909219,9.39065625 Z" id="Path" fill="#D6BA00"></path>
                        <g id="Group" transform="translate(0.000000, 31.500000)">
                            <path d="M36.1650938,21.3875156 L24.6322969,21.3875156 C24.0411094,21.3875156 23.562,20.9082656 23.562,20.3170781 C23.562,19.7258906 24.04125,19.2467813 24.6322969,19.2467813 L36.1650938,19.2467813 C36.7562813,19.2467813 37.2353907,19.7260313 37.2353907,20.3170781 C37.2355313,20.9082656 36.7564219,21.3875156 36.1650938,21.3875156 Z" id="Path" fill="#D8E2F1"></path>
                            <path d="M20.3069531,17.0621719 C19.7157656,17.0621719 19.2366562,16.5829219 19.2366562,15.9917344 L19.2366562,4.45851562 C19.2366562,3.86732812 19.7159062,3.38821875 20.3069531,3.38821875 C20.8981406,3.38821875 21.37725,3.86746875 21.37725,4.45851562 L21.37725,15.9917344 C21.3773906,16.5829219 20.8981406,17.0621719 20.3069531,17.0621719 Z" id="Path" fill="#D8E2F1"></path>
                            <path d="M20.3069531,37.245375 C19.7157656,37.245375 19.2366562,36.766125 19.2366562,36.1750781 L19.2366562,24.6417187 C19.2366562,24.0505312 19.7159062,23.5712812 20.3069531,23.5712812 C20.8981406,23.5712812 21.37725,24.0505312 21.37725,24.6417187 L21.37725,36.1749375 C21.3773906,36.766125 20.8981406,37.245375 20.3069531,37.245375 L20.3069531,37.245375 Z" id="Path" fill="#D8E2F1"></path>
                            <path d="M17.2487813,18.3289219 C16.9748437,18.3289219 16.7009062,18.2244375 16.4919375,18.0154688 L8.33667187,9.86020313 C7.91859375,9.44226563 7.91859375,8.76445313 8.33667187,8.34651563 C8.75460937,7.92857813 9.43242187,7.92857813 9.85035937,8.34651563 L18.005625,16.5017813 C18.4237031,16.9197187 18.4237031,17.5975312 18.005625,18.0154688 C17.7966562,18.2244375 17.5227187,18.3289219 17.2487813,18.3289219 Z" id="Path" fill="#D8E2F1"></path>
                            <path d="M31.5205312,32.6006719 C31.2465937,32.6006719 30.9726562,32.4961875 30.7636875,32.2872188 L22.6084219,24.1319531 C22.1903437,23.7140156 22.1903437,23.0362031 22.6084219,22.6182656 C23.0263594,22.2003281 23.7041719,22.2003281 24.1221094,22.6182656 L32.277375,30.7735312 C32.6954531,31.1914687 32.6954531,31.8692812 32.277375,32.2872188 C32.0684063,32.4960469 31.7944688,32.6006719 31.5205312,32.6006719 Z" id="Path" fill="#D8E2F1"></path>
                            <path d="M15.9820313,21.3870938 L4.44867188,21.3870938 C3.85748438,21.3870938 3.378375,20.9078438 3.378375,20.3167969 C3.378375,19.72575 3.857625,19.2463594 4.44867188,19.2463594 L15.9818906,19.2463594 C16.5730781,19.2463594 17.0523281,19.7256094 17.0523281,20.3167969 C17.0523281,20.9079844 16.5730781,21.3870938 15.9820312,21.3870938 L15.9820313,21.3870938 Z" id="Path" fill="#D8E2F1"></path>
                            <path d="M9.09351563,32.6006719 C8.81957813,32.6006719 8.54564063,32.4961875 8.33667188,32.2872188 C7.91859375,31.8692813 7.91859375,31.1914688 8.33667188,30.7735312 L16.4919375,22.6182656 C16.909875,22.2003281 17.5876875,22.2003281 18.005625,22.6182656 C18.4237031,23.0362031 18.4237031,23.7140156 18.005625,24.1319531 L9.85035938,32.2872188 C9.64139063,32.4960469 9.36745313,32.6006719 9.09351563,32.6006719 Z" id="Path" fill="#D8E2F1"></path>
                            <path d="M23.3652656,18.3289219 C23.0913281,18.3289219 22.8173906,18.2244375 22.6084219,18.0154688 C22.1903437,17.5975313 22.1903437,16.9197188 22.6084219,16.5017813 L30.7636875,8.34651563 C31.181625,7.92857813 31.8594375,7.92857813 32.277375,8.34651563 C32.6954531,8.76445312 32.6954531,9.44226562 32.277375,9.86020313 L24.1221094,18.0154688 C23.9131406,18.2244375 23.6392031,18.3289219 23.3652656,18.3289219 Z" id="Path" fill="#D8E2F1"></path>
                            <path d="M20.3069531,0.13359375 C9.16017187,0.13359375 0.12375,9.169875 0.12375,20.3167969 C0.12375,31.4637188 9.16017187,40.5 20.3069531,40.5 C31.4537344,40.5 40.4901562,31.4637188 40.4901562,20.3167969 C40.4901562,9.169875 31.453875,0.13359375 20.3069531,0.13359375 Z M20.3069531,36.1750781 C11.5486875,36.1750781 4.44867188,29.0750625 4.44867188,20.3167969 C4.44867188,11.5585313 11.5486875,4.45851563 20.3069531,4.45851563 C29.0652187,4.45851563 36.1652344,11.5585313 36.1652344,20.3167969 C36.1652344,29.0750625 29.0652187,36.1750781 20.3069531,36.1750781 Z" id="Shape" fill="#3086CD"></path>
                            <path d="M32.6214844,4.32604687 C35.2497656,7.7338125 36.8140781,12.0041719 36.8140781,16.6404375 C36.8140781,18.5355 36.5522344,20.36925 36.0639844,22.1082187 C35.2400625,29.4346406 29.4250781,35.249625 22.0986563,36.0735469 C20.3596875,36.5617969 18.5259375,36.8236406 16.630875,36.8236406 C11.9944687,36.8236406 7.72410937,35.2593281 4.31648437,32.6310469 C8.00690625,37.4165156 13.7964375,40.5 20.3069531,40.5 C31.453875,40.5 40.4901562,31.4637188 40.4901562,20.3167969 C40.4901562,13.8062812 37.4066719,8.01675 32.6214844,4.32604687 L32.6214844,4.32604687 Z" id="Path" fill="#034EA2"></path>
                            <circle id="Oval" fill="#D8E2F1" cx="20.3069531" cy="20.3167969" r="4.32492188"></circle>
                            <path d="M22.0862812,16.3749375 C22.3316719,16.91775 22.4694844,17.5197656 22.4694844,18.1542656 C22.4694844,20.5429219 20.5330781,22.4791875 18.1445625,22.4791875 C17.5100625,22.4791875 16.9081875,22.341375 16.3652344,22.0959844 C17.04375,23.5967344 18.5529375,24.6417188 20.3070937,24.6417188 C22.69575,24.6417188 24.6320156,22.7053125 24.6320156,20.3167969 C24.6320156,18.5626406 23.5870312,17.0535938 22.0862812,16.3749375 L22.0862812,16.3749375 Z" id="Path" fill="#B7C8EA"></path>
                        </g>
                        <path d="M40.2020156,27.02025 L17.1352969,27.02025 L17.1352969,25.2902812 C17.1352969,23.6978437 18.4262344,22.4069062 20.0186719,22.4069062 L37.3186406,22.4069062 C38.9110781,22.4069062 40.2020156,23.6978438 40.2020156,25.2902812 L40.2020156,27.02025 L40.2020156,27.02025 Z" id="Path" fill="#3086CD"></path>
                        <path d="M10.2147187,25.9498125 L42.7968281,25.9498125 C43.3880156,25.9498125 43.867125,26.4290625 43.867125,27.0201094 L43.867125,31.6334531 L41.7263906,31.6334531 L41.7263906,28.0905469 L10.2151406,28.0905469 L10.2147187,25.9498125 Z" id="Path" fill="#D8E2F1"></path>
                    </g>
                </g>
            </g>
        </g>
    </g>
</svg>