<svg width="55" height="45" viewBox="0 0 55 45" fill="none" xmlns="http://www.w3.org/2000/svg">
<path fill-rule="evenodd" clip-rule="evenodd" d="M46.9871 37.3686V34.1628H46.2413V36.0223C45.974 35.6794 45.5577 35.4857 45.1225 35.5017C44.0928 35.5017 43.258 36.3342 43.258 37.3612C43.258 38.3882 44.0928 39.2207 45.1225 39.2207C45.5577 39.2367 45.974 39.0429 46.2413 38.7V39.1314H46.9871V37.3686ZM23.8665 35.5909H25.1419L25.1493 36.2976H23.8814V37.919C23.8814 38.2761 24.0231 38.5141 24.396 38.5141C24.6381 38.5061 24.8742 38.437 25.0822 38.3133L25.3059 38.9752C25.0152 39.1562 24.6791 39.2516 24.3364 39.2504C23.419 39.2504 23.0983 38.7595 23.0983 37.9339V36.2976H22.3748V35.5909H23.0834V34.5124H23.8665V35.5909ZM13.5555 36.9149V39.1463L12.7723 39.1612V37.1827C12.7723 36.5802 12.5188 36.2455 11.9892 36.2455C11.7409 36.2335 11.4999 36.3319 11.3314 36.5143C11.163 36.6967 11.0843 36.9442 11.1166 37.1901V39.1612H10.3335V37.1827C10.3335 36.5802 10.0725 36.2455 9.55783 36.2455C9.30907 36.2321 9.06729 36.3302 8.8985 36.5129C8.7297 36.6956 8.65149 36.9439 8.68522 37.1901V39.1463H7.9021V35.5909H8.67776V36.0298C8.90731 35.6816 9.30459 35.4806 9.72191 35.5017C10.2012 35.4811 10.6534 35.7237 10.9003 36.1339C11.1712 35.7111 11.6513 35.4689 12.1533 35.5017C12.5342 35.4794 12.9064 35.6217 13.1748 35.8922C13.4431 36.1627 13.5818 36.5353 13.5555 36.9149ZM31.7573 35.5017C31.3721 35.4904 31.0115 35.6902 30.8176 36.0223V35.5909H30.0494V39.1463H30.8251V37.1529C30.8251 36.5653 31.0786 36.238 31.5709 36.238C31.7368 36.2358 31.9015 36.2661 32.0557 36.3273L32.2943 35.5835C32.1172 35.5203 31.9306 35.4876 31.7424 35.4868L31.7573 35.5017ZM20.3014 35.5017C20.8119 35.4842 21.3168 35.6132 21.7558 35.8736L21.4127 36.4984C21.0721 36.303 20.6869 36.198 20.294 36.1934C19.8689 36.1934 19.6153 36.3719 19.6153 36.6099C19.6153 36.848 19.8838 36.9149 20.2194 36.9595L20.5923 37.0116C21.368 37.1232 21.8379 37.3984 21.8379 38.0752C21.8379 38.7521 21.2412 39.2356 20.212 39.2356C19.6611 39.2507 19.1199 39.089 18.6681 38.7744L19.041 38.1719C19.3832 38.4251 19.8009 38.5561 20.2269 38.5438C20.7564 38.5438 21.0398 38.3876 21.0398 38.1124C21.0398 37.9116 20.8384 37.8 20.4133 37.7405L20.0404 37.6885C19.2424 37.5769 18.8098 37.2199 18.8098 36.6397C18.8098 35.9331 19.399 35.5017 20.3014 35.5017ZM42.5308 35.5017C42.1455 35.4904 41.785 35.6902 41.591 36.0223V35.5909H40.8228V39.1463H41.5985V37.1529C41.5985 36.5653 41.8521 36.238 42.3443 36.238C42.5102 36.2358 42.675 36.2661 42.8291 36.3273L43.0678 35.5835C42.8906 35.5203 42.704 35.4876 42.5159 35.4868L42.5308 35.5017ZM33.0757 38.71C32.7137 38.356 32.5181 37.8664 32.5367 37.3612V37.3463C32.5181 36.8411 32.7137 36.3515 33.0757 35.9975C33.4377 35.6436 33.9325 35.4582 34.4386 35.4868C34.9043 35.4632 35.362 35.6144 35.7214 35.9108L35.3485 36.5356C35.0803 36.3317 34.7534 36.2195 34.4162 36.2157C33.8217 36.2637 33.3637 36.7589 33.3637 37.3538C33.3637 37.9486 33.8217 38.4438 34.4162 38.4918C34.7534 38.488 35.0803 38.3759 35.3485 38.1719L35.7214 38.7967C35.362 39.0931 34.9043 39.2443 34.4386 39.2207C33.9325 39.2493 33.4377 39.0639 33.0757 38.71ZM39.8011 37.3612V35.5909H39.0254V36.0223C38.7582 35.6794 38.3418 35.4857 37.9067 35.5017C36.8769 35.5017 36.0421 36.3342 36.0421 37.3612C36.0421 38.3882 36.8769 39.2207 37.9067 39.2207C38.3418 39.2367 38.7582 39.0429 39.0254 38.7V39.1314H39.8011V37.3612ZM38.031 36.3504C37.4452 36.3285 36.9492 36.7776 36.9147 37.3612C36.8949 37.6583 37.0004 37.9501 37.2058 38.1661C37.4111 38.3822 37.6977 38.503 37.9962 38.4992C38.5824 38.4962 39.0587 38.0264 39.0681 37.4418C39.0776 36.8572 38.6168 36.3723 38.031 36.3504ZM27.5546 35.5017C26.5248 35.5161 25.7017 36.3602 25.7161 37.3872C25.7306 38.4142 26.577 39.2351 27.6068 39.2207C28.1433 39.2482 28.671 39.0759 29.0873 38.7372L28.7144 38.1645C28.4199 38.4 28.0551 38.5309 27.6777 38.5364C27.1445 38.5821 26.6718 38.1964 26.6111 37.6661H29.2588V37.3686C29.2588 36.2529 28.5652 35.5091 27.5658 35.5091L27.5546 35.5017ZM28.1851 36.4384C28.0158 36.2766 27.789 36.1884 27.5546 36.1934H27.5397C27.0413 36.1765 26.6206 36.5597 26.5925 37.0562H28.4571C28.4522 36.8225 28.3543 36.6002 28.1851 36.4384ZM48.4228 38.6554C48.3806 38.6387 48.3356 38.6299 48.2902 38.6294H48.2923C48.2401 38.6273 48.188 38.6361 48.1394 38.6554C48.0966 38.6728 48.0574 38.6981 48.0238 38.7298C47.991 38.7618 47.9645 38.7997 47.9455 38.8414C47.9077 38.9292 47.9077 39.0287 47.9455 39.1166C48.0061 39.2472 48.1368 39.3312 48.2811 39.3323C48.3299 39.3323 48.3782 39.3222 48.4228 39.3025C48.4656 39.2851 48.5048 39.2599 48.5384 39.2281C48.5712 39.1961 48.5977 39.1582 48.6167 39.1166C48.6549 39.0288 48.6549 38.9291 48.6167 38.8414C48.5977 38.7997 48.5712 38.7618 48.5384 38.7298C48.5048 38.6981 48.4656 38.6728 48.4228 38.6554ZM48.2843 39.2579C48.3204 39.2577 48.3561 39.2501 48.3892 39.2356C48.4213 39.2213 48.4504 39.2011 48.475 39.1761C48.5717 39.0709 48.5717 38.9094 48.475 38.8042C48.4505 38.7791 48.4214 38.7589 48.3892 38.7447C48.3551 38.7298 48.3183 38.7222 48.2811 38.7223C48.2439 38.7225 48.2072 38.7301 48.173 38.7447C48.1395 38.7584 48.109 38.7786 48.0835 38.8042C47.9868 38.9094 47.9868 39.0709 48.0835 39.1761C48.1091 39.2016 48.1395 39.2218 48.173 39.2356C48.2106 39.2517 48.2513 39.2594 48.2923 39.2579H48.2843ZM48.4004 38.8451C48.3726 38.8242 48.3383 38.8136 48.3035 38.8153L48.1468 38.819V39.1463H48.2177V39.0236H48.2513L48.352 39.1463H48.4377L48.3296 39.0236C48.3587 39.0215 48.3863 39.0097 48.4079 38.9901C48.4256 38.9724 48.4351 38.9481 48.434 38.9232C48.4361 38.8933 48.4236 38.8642 48.4004 38.8451ZM48.2214 38.8785V38.9678H48.3035C48.3181 38.9721 48.3336 38.9721 48.3482 38.9678C48.3535 38.9573 48.3535 38.9449 48.3482 38.9343C48.3535 38.9238 48.3535 38.9114 48.3482 38.9009C48.3336 38.8965 48.3181 38.8965 48.3035 38.9009L48.2214 38.8785ZM45.2357 36.3578C44.6498 36.3359 44.1539 36.785 44.1194 37.3686C44.0996 37.6657 44.2051 37.9575 44.4105 38.1736C44.6158 38.3897 44.9023 38.5104 45.2008 38.5066C45.7871 38.5036 46.2633 38.0338 46.2728 37.4492C46.2823 36.8647 45.8215 36.3798 45.2357 36.3578ZM17.9297 37.3686V35.5909H17.1541V36.0223C16.8868 35.6794 16.4705 35.4857 16.0353 35.5017C15.0056 35.5017 14.1708 36.3342 14.1708 37.3612C14.1708 38.3882 15.0056 39.2207 16.0353 39.2207C16.4705 39.2367 16.8868 39.0429 17.1541 38.7V39.1314H17.9297V37.3686ZM16.1597 36.3578C15.5738 36.3359 15.0779 36.785 15.0434 37.3686H15.0359C15.016 37.667 15.1225 37.96 15.3295 38.1764C15.5365 38.3927 15.825 38.5125 16.1248 38.5066C16.7111 38.5036 17.1873 38.0338 17.1968 37.4492C17.2063 36.8647 16.7455 36.3798 16.1597 36.3578Z" fill="black"/>
<rect x="21.4985" y="8.49792" width="11.7468" height="21.0533" fill="#FF5F00"/>
<path d="M22.2443 19.0265C22.2399 14.9175 24.1308 11.0349 27.3718 8.49797C21.8675 4.18394 13.9632 4.81232 9.21371 9.94149C4.46424 15.0707 4.46424 22.9786 9.21371 28.1078C13.9632 33.2369 21.8675 33.8653 27.3718 29.5513C24.1318 27.0151 22.241 23.1341 22.2443 19.0265Z" fill="#EB001B"/>
<path d="M49.094 19.0265C49.0939 24.1525 46.159 28.8285 41.5357 31.0686C36.9125 33.3086 31.4126 32.7194 27.3718 29.5513C30.6104 27.013 32.5014 23.1325 32.5014 19.0246C32.5014 14.9167 30.6104 11.0362 27.3718 8.49796C31.4126 5.32977 36.9125 4.74059 41.5357 6.98064C46.159 9.22069 49.0939 13.8967 49.094 19.0228V19.0265Z" fill="#F79E1B"/>
<path fill-rule="evenodd" clip-rule="evenodd" d="M47.8112 26.9694V27.7921H47.7329V26.9694H47.5427V26.7992H47.9865V26.9694H47.8112ZM48.6727 26.7992V27.7921L48.5943 27.7992V27.0474L48.4489 27.6928H48.3482L48.2028 27.0474V27.7921H48.1058V26.7992H48.2252L48.3818 27.5084L48.5384 26.7992H48.6727Z" fill="#F79E1B"/>
</svg>
