<svg width="53" height="16" viewBox="0 0 53 16" fill="none" xmlns="http://www.w3.org/2000/svg">
<path d="M19.1438 15.5221L21.7958 0.561035H25.9395L23.3704 15.5221H19.1438Z" fill="#1A1F71"/>
<path d="M19.1438 15.5221L22.5416 0.561035H25.9395L23.3704 15.5221H19.1438Z" fill="#1A1F71"/>
<path d="M38.3706 0.727313C37.5419 0.394845 36.2159 0.0623779 34.5584 0.0623779C30.4147 0.0623779 27.4313 2.1403 27.4313 5.13251C27.4313 7.37666 29.5031 8.5403 31.1606 9.28835C32.8181 10.0364 33.3153 10.5351 33.3153 11.2C33.3153 12.1974 31.9893 12.6961 30.8291 12.6961C29.1716 12.6961 28.26 12.4468 26.8512 11.865L26.271 11.6156L25.6909 15.0234C26.6854 15.439 28.5086 15.8546 30.4147 15.8546C34.807 15.8546 37.7076 13.7767 37.7076 10.6182C37.7076 8.87277 36.6303 7.5429 34.1441 6.46238C32.6523 5.71433 31.7407 5.29874 31.7407 4.55069C31.7407 3.88575 32.4866 3.22082 34.1441 3.22082C35.5529 3.22082 36.5474 3.47017 37.2933 3.80264L37.7076 3.96887L38.3706 0.727313Z" fill="#1A1F71"/>
<path d="M38.3706 0.727313C37.5419 0.394845 36.2159 0.0623779 34.5584 0.0623779C30.4147 0.0623779 28.1771 2.1403 28.1771 5.13251C28.1771 7.37666 29.5031 8.5403 31.1606 9.28835C32.8181 10.0364 33.3153 10.5351 33.3153 11.2C33.3153 12.1974 31.9893 12.6961 30.8291 12.6961C29.1716 12.6961 28.26 12.4468 26.8512 11.865L26.271 11.6156L25.6909 15.0234C26.6854 15.439 28.5086 15.8546 30.4147 15.8546C34.807 15.8546 37.7076 13.7767 37.7076 10.6182C37.7076 8.87277 36.6303 7.5429 34.1441 6.46238C32.6523 5.71433 31.7407 5.29874 31.7407 4.55069C31.7407 3.88575 32.4866 3.22082 34.1441 3.22082C35.5529 3.22082 36.5474 3.47017 37.2933 3.80264L37.7076 3.96887L38.3706 0.727313Z" fill="#1A1F71"/>
<path fill-rule="evenodd" clip-rule="evenodd" d="M43.343 1.64155C43.7573 0.644152 44.5032 0.561035 45.4977 0.561035H48.7298L52.2105 15.5221H48.2325L47.7353 13.0286H42.4314L41.6026 15.5221H37.1274L43.343 1.64155ZM45.2491 6.12987C45.2491 6.12987 43.8402 9.78701 43.5916 10.5351V10.6182H47.0723C46.9066 9.78701 46.0778 6.04675 46.0778 6.04675L45.8292 4.63376C45.5806 5.21558 45.2491 6.12987 45.2491 6.12987Z" fill="#1A1F71"/>
<path fill-rule="evenodd" clip-rule="evenodd" d="M44.3375 1.64155C44.7518 0.644152 45.4977 0.561035 46.4922 0.561035H48.7298L52.2105 15.5221H48.2325L47.7353 13.0286H42.4314L41.6026 15.5221H37.1274L44.3375 1.64155ZM45.2491 6.12987C45.2491 6.12987 43.9231 9.70389 43.5916 10.5351V10.6182H47.0723C46.9066 9.78701 46.0778 6.04675 46.0778 6.04675L45.8292 4.63376C45.5806 5.21558 45.2491 6.12987 45.2491 6.12987Z" fill="#1A1F71"/>
<path d="M11.5195 11.0338L11.1051 8.87274C10.3593 6.37923 7.95592 3.63637 5.30396 2.3065L9.03328 15.6052H13.5085L20.2212 0.644165H15.7461L11.5195 11.0338Z" fill="#1A1F71"/>
<path d="M11.5195 11.0338L11.1051 8.87274C10.3593 6.37923 7.95592 3.63637 5.30396 2.3065L9.03328 15.6052H13.5085L20.2212 0.644165H16.5748L11.5195 11.0338Z" fill="#1A1F71"/>
<path d="M0 0.561035L0.745865 0.727269C6.04979 1.97402 9.69624 5.13246 11.1051 8.87272L9.61337 1.80779C9.36475 0.810386 8.61888 0.561035 7.70727 0.561035H0V0.561035Z" fill="#1A1F71"/>
<path d="M0 0.561035C5.30393 1.80779 9.69624 5.04935 11.1051 8.78961L9.69624 2.88831C9.44762 1.89091 8.61888 1.30909 7.70727 1.30909L0 0.561035Z" fill="#1A1F71"/>
<path d="M0 0.561035C5.30393 1.80779 9.69624 5.04935 11.1051 8.78961L10.1106 5.54805C9.86199 4.55065 9.53049 3.55324 8.37026 3.13766L0 0.561035Z" fill="#1A1F71"/>
<path d="M15.6631 10.535L12.8454 7.70898L11.5194 10.8674L11.1879 8.7895C10.442 6.29599 8.03868 3.55314 5.38672 2.22327L9.11604 15.522H13.5912L15.6631 10.535Z" fill="#1A1F71"/>
<path d="M23.3704 15.522L19.8068 11.8649L19.1438 15.522H23.3704Z" fill="#1A1F71"/>
<path d="M32.9009 10.3688C33.2324 10.7012 33.3982 10.9506 33.3153 11.2831C33.3153 12.2805 31.9893 12.7792 30.8291 12.7792C29.1716 12.7792 28.26 12.5298 26.8512 11.948L26.271 11.6986L25.6909 15.1064C26.6854 15.522 28.5086 15.9376 30.4147 15.9376C33.0667 15.9376 35.2214 15.1896 36.4645 13.8597L32.9009 10.3688Z" fill="#1A1F71"/>
<path d="M37.7075 15.522H41.6026L42.4313 13.0285H47.7353L48.2325 15.522H52.2104L50.8016 9.45445L45.8292 4.63367L46.0778 5.96354C46.0778 5.96354 46.9065 9.7038 47.0723 10.535H43.5916C43.9231 9.7038 45.249 6.12977 45.249 6.12977C45.249 6.12977 45.5805 5.21549 45.8292 4.63367" fill="#1A1F71"/>
</svg>
